<svg width="16" height="16" viewBox="0 0 16 16" fill="none" xmlns="http://www.w3.org/2000/svg">
  <path d="M8 10C9.10457 10 10 9.10457 10 8C10 6.89543 9.10457 6 8 6C6.89543 6 6 6.89543 6 8C6 9.10457 6.89543 10 8 10Z" stroke="currentColor" stroke-width="1.5" stroke-linecap="round" stroke-linejoin="round"/>
  <path d="M2 5.5H4L5 3H11L12 5.5H14C14.5523 5.5 15 5.94772 15 6.5V13C15 13.5523 14.5523 14 14 14H2C1.44772 14 1 13.5523 1 13V6.5C1 5.94772 1.44772 5.5 2 5.5Z" stroke="currentColor" stroke-width="1.5" stroke-linecap="round" stroke-linejoin="round"/>
</svg>


