<svg width="16" height="16" viewBox="0 0 16 16" fill="none" xmlns="http://www.w3.org/2000/svg">
<path d="M2 4C2 3.44772 2.44772 3 3 3H5.58579C5.851 3 6.10536 2.89464 6.29289 2.70711L7.70711 1.29289C7.89464 1.10536 8.149 1 8.41421 1H11C11.5523 1 12 1.44772 12 2V12C12 12.5523 11.5523 13 11 13H3C2.44772 13 2 12.5523 2 12V4Z" stroke="#0A0A0A" stroke-width="1.33" stroke-linecap="round" stroke-linejoin="round"/>
<path d="M6 7C6 7.55228 6.44772 8 7 8C7.55228 8 8 7.55228 8 7C8 6.44772 7.55228 6 7 6C6.44772 6 6 6.44772 6 7Z" stroke="#0A0A0A" stroke-width="1.33" stroke-linecap="round" stroke-linejoin="round"/>
<path d="M2 9L4.5 6.5L7 9L10 6L12 8" stroke="#0A0A0A" stroke-width="1.33" stroke-linecap="round" stroke-linejoin="round"/>
</svg>
