<svg width="40" height="40" viewBox="0 0 40 40" fill="none" xmlns="http://www.w3.org/2000/svg">
<path d="M0 20C0 8.95431 8.95431 0 20 0C31.0457 0 40 8.95431 40 20C40 31.0457 31.0457 40 20 40C8.95431 40 0 31.0457 0 20Z" fill="#DBEAFE"/>
<g clip-path="url(#clip0_6_3732)">
<path d="M20 28.3333C24.6024 28.3333 28.3333 24.6023 28.3333 20C28.3333 15.3976 24.6024 11.6666 20 11.6666C15.3976 11.6666 11.6667 15.3976 11.6667 20C11.6667 24.6023 15.3976 28.3333 20 28.3333Z" stroke="#155DFC" stroke-width="1.66667" stroke-linecap="round" stroke-linejoin="round"/>
<path d="M23.3333 20L20 16.6666L16.6667 20" stroke="#155DFC" stroke-width="1.66667" stroke-linecap="round" stroke-linejoin="round"/>
<path d="M20 23.3333V16.6666" stroke="#155DFC" stroke-width="1.66667" stroke-linecap="round" stroke-linejoin="round"/>
</g>
<defs>
<clipPath id="clip0_6_3732">
<rect width="20" height="20" fill="white" transform="translate(10 10)"/>
</clipPath>
</defs>
</svg>

